<?xml version="1.0" encoding="UTF-8" standalone="no"?>
<!DOCTYPE svg PUBLIC "-//W3C//DTD SVG 1.1//EN"
 "http://www.w3.org/Graphics/SVG/1.1/DTD/svg11.dtd">
<!-- Generated by graphviz version 2.40.1 (20161225.0304)
 -->
<!-- Title: controllers_diagram Pages: 1 -->
<svg width="681pt" height="709pt"
 viewBox="0.00 0.00 680.88 709.00" xmlns="http://www.w3.org/2000/svg" xmlns:xlink="http://www.w3.org/1999/xlink">
<g id="graph0" class="graph" transform="scale(1 1) rotate(0) translate(4 705)">
<title>controllers_diagram</title>
<polygon fill="transparent" stroke="transparent" points="-4,4 -4,-705 676.8828,-705 676.8828,4 -4,4"/>
<!-- _diagram_info -->
<g id="node1" class="node">
<title>_diagram_info</title>
<text text-anchor="start" x="344" y="-173.6" font-family="Times,serif" font-size="13.00" fill="#000000">Controllers diagram</text>
<text text-anchor="start" x="344" y="-160.6" font-family="Times,serif" font-size="13.00" fill="#000000">Date: Oct 22 2017 &#45; 08:58</text>
<text text-anchor="start" x="344" y="-147.6" font-family="Times,serif" font-size="13.00" fill="#000000">Generated by RailRoady 1.5.3</text>
<text text-anchor="start" x="344" y="-134.6" font-family="Times,serif" font-size="13.00" fill="#000000">http://railroady.prestonlee.com</text>
</g>
<!-- AdminsController -->
<g id="node2" class="node">
<title>AdminsController</title>
<path fill="none" stroke="#000000" d="M348,-.5C348,-.5 441.8828,-.5 441.8828,-.5 447.8828,-.5 453.8828,-6.5 453.8828,-12.5 453.8828,-12.5 453.8828,-78.5 453.8828,-78.5 453.8828,-84.5 447.8828,-90.5 441.8828,-90.5 441.8828,-90.5 348,-90.5 348,-90.5 342,-90.5 336,-84.5 336,-78.5 336,-78.5 336,-12.5 336,-12.5 336,-6.5 342,-.5 348,-.5"/>
<text text-anchor="middle" x="394.9414" y="-75.3" font-family="Times,serif" font-size="14.00" fill="#000000">AdminsController</text>
<polyline fill="none" stroke="#000000" points="336,-68.5 453.8828,-68.5 "/>
<text text-anchor="start" x="344" y="-53.3" font-family="Times,serif" font-size="14.00" fill="#000000">update_role</text>
<polyline fill="none" stroke="#000000" points="336,-46.5 453.8828,-46.5 "/>
<polyline fill="none" stroke="#000000" points="336,-22.5 453.8828,-22.5 "/>
<text text-anchor="start" x="344" y="-7.3" font-family="Times,serif" font-size="14.00" fill="#000000">_layout</text>
</g>
<!-- ApplicationController -->
<g id="node3" class="node">
<title>ApplicationController</title>
<path fill="none" stroke="#000000" d="M492,-224.5C492,-224.5 607.6416,-224.5 607.6416,-224.5 613.6416,-224.5 619.6416,-230.5 619.6416,-236.5 619.6416,-236.5 619.6416,-302.5 619.6416,-302.5 619.6416,-308.5 613.6416,-314.5 607.6416,-314.5 607.6416,-314.5 492,-314.5 492,-314.5 486,-314.5 480,-308.5 480,-302.5 480,-302.5 480,-236.5 480,-236.5 480,-230.5 486,-224.5 492,-224.5"/>
<text text-anchor="middle" x="549.8208" y="-299.3" font-family="Times,serif" font-size="14.00" fill="#000000">ApplicationController</text>
<polyline fill="none" stroke="#000000" points="480,-292.5 619.6416,-292.5 "/>
<text text-anchor="start" x="488" y="-277.3" font-family="Times,serif" font-size="14.00" fill="#000000">prepare_meta_tags</text>
<polyline fill="none" stroke="#000000" points="480,-270.5 619.6416,-270.5 "/>
<polyline fill="none" stroke="#000000" points="480,-246.5 619.6416,-246.5 "/>
<text text-anchor="start" x="488" y="-231.3" font-family="Times,serif" font-size="14.00" fill="#000000">_layout</text>
</g>
<!-- ArticlesController -->
<g id="node4" class="node">
<title>ArticlesController</title>
<path fill="none" stroke="#000000" d="M348,-224.5C348,-224.5 441.8623,-224.5 441.8623,-224.5 447.8623,-224.5 453.8623,-230.5 453.8623,-236.5 453.8623,-236.5 453.8623,-414.5 453.8623,-414.5 453.8623,-420.5 447.8623,-426.5 441.8623,-426.5 441.8623,-426.5 348,-426.5 348,-426.5 342,-426.5 336,-420.5 336,-414.5 336,-414.5 336,-236.5 336,-236.5 336,-230.5 342,-224.5 348,-224.5"/>
<text text-anchor="middle" x="394.9312" y="-411.3" font-family="Times,serif" font-size="14.00" fill="#000000">ArticlesController</text>
<polyline fill="none" stroke="#000000" points="336,-404.5 453.8623,-404.5 "/>
<text text-anchor="start" x="344" y="-389.3" font-family="Times,serif" font-size="14.00" fill="#000000">index</text>
<text text-anchor="start" x="344" y="-375.3" font-family="Times,serif" font-size="14.00" fill="#000000">destroy</text>
<text text-anchor="start" x="344" y="-361.3" font-family="Times,serif" font-size="14.00" fill="#000000">edit</text>
<text text-anchor="start" x="344" y="-347.3" font-family="Times,serif" font-size="14.00" fill="#000000">create</text>
<text text-anchor="start" x="344" y="-333.3" font-family="Times,serif" font-size="14.00" fill="#000000">my</text>
<text text-anchor="start" x="344" y="-319.3" font-family="Times,serif" font-size="14.00" fill="#000000">show</text>
<text text-anchor="start" x="344" y="-305.3" font-family="Times,serif" font-size="14.00" fill="#000000">update</text>
<polyline fill="none" stroke="#000000" points="336,-298.5 453.8623,-298.5 "/>
<polyline fill="none" stroke="#000000" points="336,-274.5 453.8623,-274.5 "/>
<text text-anchor="start" x="344" y="-259.3" font-family="Times,serif" font-size="14.00" fill="#000000">_layout</text>
<text text-anchor="start" x="344" y="-245.3" font-family="Times,serif" font-size="14.00" fill="#000000">load_article</text>
<text text-anchor="start" x="344" y="-231.3" font-family="Times,serif" font-size="14.00" fill="#000000">load_comments</text>
</g>
<!-- CommentsController -->
<g id="node5" class="node">
<title>CommentsController</title>
<path fill="none" stroke="#000000" d="M28,-544.5C28,-544.5 138.2139,-544.5 138.2139,-544.5 144.2139,-544.5 150.2139,-550.5 150.2139,-556.5 150.2139,-556.5 150.2139,-622.5 150.2139,-622.5 150.2139,-628.5 144.2139,-634.5 138.2139,-634.5 138.2139,-634.5 28,-634.5 28,-634.5 22,-634.5 16,-628.5 16,-622.5 16,-622.5 16,-556.5 16,-556.5 16,-550.5 22,-544.5 28,-544.5"/>
<text text-anchor="middle" x="83.1069" y="-619.3" font-family="Times,serif" font-size="14.00" fill="#000000">CommentsController</text>
<polyline fill="none" stroke="#000000" points="16,-612.5 150.2139,-612.5 "/>
<text text-anchor="start" x="24" y="-597.3" font-family="Times,serif" font-size="14.00" fill="#000000">create</text>
<polyline fill="none" stroke="#000000" points="16,-590.5 150.2139,-590.5 "/>
<polyline fill="none" stroke="#000000" points="16,-566.5 150.2139,-566.5 "/>
<text text-anchor="start" x="24" y="-551.3" font-family="Times,serif" font-size="14.00" fill="#000000">_layout</text>
</g>
<!-- CtrsController -->
<g id="node6" class="node">
<title>CtrsController</title>
<path fill="none" stroke="#000000" d="M588,-352.5C588,-352.5 660.8828,-352.5 660.8828,-352.5 666.8828,-352.5 672.8828,-358.5 672.8828,-364.5 672.8828,-364.5 672.8828,-432.5 672.8828,-432.5 672.8828,-438.5 666.8828,-444.5 660.8828,-444.5 660.8828,-444.5 588,-444.5 588,-444.5 582,-444.5 576,-438.5 576,-432.5 576,-432.5 576,-364.5 576,-364.5 576,-358.5 582,-352.5 588,-352.5"/>
<text text-anchor="middle" x="624.4414" y="-429.3" font-family="Times,serif" font-size="14.00" fill="#000000">CtrsController</text>
<polyline fill="none" stroke="#000000" points="576,-422.5 672.8828,-422.5 "/>
<polyline fill="none" stroke="#000000" points="576,-398.5 672.8828,-398.5 "/>
<polyline fill="none" stroke="#000000" points="576,-374.5 672.8828,-374.5 "/>
<text text-anchor="start" x="584" y="-359.3" font-family="Times,serif" font-size="14.00" fill="#000000">_layout</text>
</g>
<!-- DevsController -->
<g id="node7" class="node">
<title>DevsController</title>
<path fill="none" stroke="#000000" d="M300,-608.5C300,-608.5 378.3174,-608.5 378.3174,-608.5 384.3174,-608.5 390.3174,-614.5 390.3174,-620.5 390.3174,-620.5 390.3174,-688.5 390.3174,-688.5 390.3174,-694.5 384.3174,-700.5 378.3174,-700.5 378.3174,-700.5 300,-700.5 300,-700.5 294,-700.5 288,-694.5 288,-688.5 288,-688.5 288,-620.5 288,-620.5 288,-614.5 294,-608.5 300,-608.5"/>
<text text-anchor="middle" x="339.1587" y="-685.3" font-family="Times,serif" font-size="14.00" fill="#000000">DevsController</text>
<polyline fill="none" stroke="#000000" points="288,-678.5 390.3174,-678.5 "/>
<polyline fill="none" stroke="#000000" points="288,-654.5 390.3174,-654.5 "/>
<polyline fill="none" stroke="#000000" points="288,-630.5 390.3174,-630.5 "/>
<text text-anchor="start" x="296" y="-615.3" font-family="Times,serif" font-size="14.00" fill="#000000">_layout</text>
</g>
<!-- IdentitiesController -->
<g id="node8" class="node">
<title>IdentitiesController</title>
<path fill="none" stroke="#000000" d="M28,-176.5C28,-176.5 129.6416,-176.5 129.6416,-176.5 135.6416,-176.5 141.6416,-182.5 141.6416,-188.5 141.6416,-188.5 141.6416,-254.5 141.6416,-254.5 141.6416,-260.5 135.6416,-266.5 129.6416,-266.5 129.6416,-266.5 28,-266.5 28,-266.5 22,-266.5 16,-260.5 16,-254.5 16,-254.5 16,-188.5 16,-188.5 16,-182.5 22,-176.5 28,-176.5"/>
<text text-anchor="middle" x="78.8208" y="-251.3" font-family="Times,serif" font-size="14.00" fill="#000000">IdentitiesController</text>
<polyline fill="none" stroke="#000000" points="16,-244.5 141.6416,-244.5 "/>
<text text-anchor="start" x="24" y="-229.3" font-family="Times,serif" font-size="14.00" fill="#000000">new</text>
<polyline fill="none" stroke="#000000" points="16,-222.5 141.6416,-222.5 "/>
<polyline fill="none" stroke="#000000" points="16,-198.5 141.6416,-198.5 "/>
<text text-anchor="start" x="24" y="-183.3" font-family="Times,serif" font-size="14.00" fill="#000000">_layout</text>
</g>
<!-- MindappController -->
<g id="node9" class="node">
<title>MindappController</title>
<path fill="none" stroke="#000000" d="M188,-16.5C188,-16.5 294.3174,-16.5 294.3174,-16.5 300.3174,-16.5 306.3174,-22.5 306.3174,-28.5 306.3174,-28.5 306.3174,-570.5 306.3174,-570.5 306.3174,-576.5 300.3174,-582.5 294.3174,-582.5 294.3174,-582.5 188,-582.5 188,-582.5 182,-582.5 176,-576.5 176,-570.5 176,-570.5 176,-28.5 176,-28.5 176,-22.5 182,-16.5 188,-16.5"/>
<text text-anchor="middle" x="241.1587" y="-567.3" font-family="Times,serif" font-size="14.00" fill="#000000">MindappController</text>
<polyline fill="none" stroke="#000000" points="176,-560.5 306.3174,-560.5 "/>
<text text-anchor="start" x="184" y="-545.3" font-family="Times,serif" font-size="14.00" fill="#000000">status</text>
<text text-anchor="start" x="184" y="-531.3" font-family="Times,serif" font-size="14.00" fill="#000000">cancel</text>
<text text-anchor="start" x="184" y="-517.3" font-family="Times,serif" font-size="14.00" fill="#000000">clear_xmains</text>
<text text-anchor="start" x="184" y="-503.3" font-family="Times,serif" font-size="14.00" fill="#000000">doc</text>
<text text-anchor="start" x="184" y="-489.3" font-family="Times,serif" font-size="14.00" fill="#000000">doc_print</text>
<text text-anchor="start" x="184" y="-475.3" font-family="Times,serif" font-size="14.00" fill="#000000">document</text>
<text text-anchor="start" x="184" y="-461.3" font-family="Times,serif" font-size="14.00" fill="#000000">end_action</text>
<text text-anchor="start" x="184" y="-447.3" font-family="Times,serif" font-size="14.00" fill="#000000">end_form</text>
<text text-anchor="start" x="184" y="-433.3" font-family="Times,serif" font-size="14.00" fill="#000000">end_output</text>
<text text-anchor="start" x="184" y="-419.3" font-family="Times,serif" font-size="14.00" fill="#000000">err404</text>
<text text-anchor="start" x="184" y="-405.3" font-family="Times,serif" font-size="14.00" fill="#000000">err500</text>
<text text-anchor="start" x="184" y="-391.3" font-family="Times,serif" font-size="14.00" fill="#000000">error_logs</text>
<text text-anchor="start" x="184" y="-377.3" font-family="Times,serif" font-size="14.00" fill="#000000">get_image</text>
<text text-anchor="start" x="184" y="-363.3" font-family="Times,serif" font-size="14.00" fill="#000000">get_image1</text>
<text text-anchor="start" x="184" y="-349.3" font-family="Times,serif" font-size="14.00" fill="#000000">help</text>
<text text-anchor="start" x="184" y="-335.3" font-family="Times,serif" font-size="14.00" fill="#000000">index</text>
<text text-anchor="start" x="184" y="-321.3" font-family="Times,serif" font-size="14.00" fill="#000000">init</text>
<text text-anchor="start" x="184" y="-307.3" font-family="Times,serif" font-size="14.00" fill="#000000">logs</text>
<text text-anchor="start" x="184" y="-293.3" font-family="Times,serif" font-size="14.00" fill="#000000">pending</text>
<text text-anchor="start" x="184" y="-279.3" font-family="Times,serif" font-size="14.00" fill="#000000">run</text>
<text text-anchor="start" x="184" y="-265.3" font-family="Times,serif" font-size="14.00" fill="#000000">run_do</text>
<text text-anchor="start" x="184" y="-251.3" font-family="Times,serif" font-size="14.00" fill="#000000">run_form</text>
<text text-anchor="start" x="184" y="-237.3" font-family="Times,serif" font-size="14.00" fill="#000000">run_if</text>
<text text-anchor="start" x="184" y="-223.3" font-family="Times,serif" font-size="14.00" fill="#000000">run_mail</text>
<text text-anchor="start" x="184" y="-209.3" font-family="Times,serif" font-size="14.00" fill="#000000">run_output</text>
<text text-anchor="start" x="184" y="-195.3" font-family="Times,serif" font-size="14.00" fill="#000000">run_redirect</text>
<text text-anchor="start" x="184" y="-181.3" font-family="Times,serif" font-size="14.00" fill="#000000">search</text>
<text text-anchor="start" x="184" y="-167.3" font-family="Times,serif" font-size="14.00" fill="#000000">ajax_notice</text>
<polyline fill="none" stroke="#000000" points="176,-160.5 306.3174,-160.5 "/>
<polyline fill="none" stroke="#000000" points="176,-136.5 306.3174,-136.5 "/>
<text text-anchor="start" x="184" y="-121.3" font-family="Times,serif" font-size="14.00" fill="#000000">store_asset</text>
<text text-anchor="start" x="184" y="-107.3" font-family="Times,serif" font-size="14.00" fill="#000000">create_runseq</text>
<text text-anchor="start" x="184" y="-93.3" font-family="Times,serif" font-size="14.00" fill="#000000">create_xmain</text>
<text text-anchor="start" x="184" y="-79.3" font-family="Times,serif" font-size="14.00" fill="#000000">do_search</text>
<text text-anchor="start" x="184" y="-65.3" font-family="Times,serif" font-size="14.00" fill="#000000">init_vars</text>
<text text-anchor="start" x="184" y="-51.3" font-family="Times,serif" font-size="14.00" fill="#000000">init_vars_by_runseq</text>
<text text-anchor="start" x="184" y="-37.3" font-family="Times,serif" font-size="14.00" fill="#000000">read_binary</text>
<text text-anchor="start" x="184" y="-23.3" font-family="Times,serif" font-size="14.00" fill="#000000">_layout</text>
</g>
<!-- PicturesController -->
<g id="node10" class="node">
<title>PicturesController</title>
<path fill="none" stroke="#000000" d="M12,-48.5C12,-48.5 106.6484,-48.5 106.6484,-48.5 112.6484,-48.5 118.6484,-54.5 118.6484,-60.5 118.6484,-60.5 118.6484,-128.5 118.6484,-128.5 118.6484,-134.5 112.6484,-140.5 106.6484,-140.5 106.6484,-140.5 12,-140.5 12,-140.5 6,-140.5 0,-134.5 0,-128.5 0,-128.5 0,-60.5 0,-60.5 0,-54.5 6,-48.5 12,-48.5"/>
<text text-anchor="middle" x="59.3242" y="-125.3" font-family="Times,serif" font-size="14.00" fill="#000000">PicturesController</text>
<polyline fill="none" stroke="#000000" points="0,-118.5 118.6484,-118.5 "/>
<polyline fill="none" stroke="#000000" points="0,-94.5 118.6484,-94.5 "/>
<polyline fill="none" stroke="#000000" points="0,-70.5 118.6484,-70.5 "/>
<text text-anchor="start" x="8" y="-55.3" font-family="Times,serif" font-size="14.00" fill="#000000">_layout</text>
</g>
<!-- SessionsController -->
<g id="node11" class="node">
<title>SessionsController</title>
<path fill="none" stroke="#000000" d="M428,-464.5C428,-464.5 525.7793,-464.5 525.7793,-464.5 531.7793,-464.5 537.7793,-470.5 537.7793,-476.5 537.7793,-476.5 537.7793,-584.5 537.7793,-584.5 537.7793,-590.5 531.7793,-596.5 525.7793,-596.5 525.7793,-596.5 428,-596.5 428,-596.5 422,-596.5 416,-590.5 416,-584.5 416,-584.5 416,-476.5 416,-476.5 416,-470.5 422,-464.5 428,-464.5"/>
<text text-anchor="middle" x="476.8896" y="-581.3" font-family="Times,serif" font-size="14.00" fill="#000000">SessionsController</text>
<polyline fill="none" stroke="#000000" points="416,-574.5 537.7793,-574.5 "/>
<text text-anchor="start" x="424" y="-559.3" font-family="Times,serif" font-size="14.00" fill="#000000">create</text>
<text text-anchor="start" x="424" y="-545.3" font-family="Times,serif" font-size="14.00" fill="#000000">destroy</text>
<text text-anchor="start" x="424" y="-531.3" font-family="Times,serif" font-size="14.00" fill="#000000">failure</text>
<text text-anchor="start" x="424" y="-517.3" font-family="Times,serif" font-size="14.00" fill="#000000">new</text>
<polyline fill="none" stroke="#000000" points="416,-510.5 537.7793,-510.5 "/>
<polyline fill="none" stroke="#000000" points="416,-486.5 537.7793,-486.5 "/>
<text text-anchor="start" x="424" y="-471.3" font-family="Times,serif" font-size="14.00" fill="#000000">_layout</text>
</g>
<!-- SitemapController -->
<g id="node12" class="node">
<title>SitemapController</title>
<path fill="none" stroke="#000000" d="M556,-16.5C556,-16.5 651.4277,-16.5 651.4277,-16.5 657.4277,-16.5 663.4277,-22.5 663.4277,-28.5 663.4277,-28.5 663.4277,-94.5 663.4277,-94.5 663.4277,-100.5 657.4277,-106.5 651.4277,-106.5 651.4277,-106.5 556,-106.5 556,-106.5 550,-106.5 544,-100.5 544,-94.5 544,-94.5 544,-28.5 544,-28.5 544,-22.5 550,-16.5 556,-16.5"/>
<text text-anchor="middle" x="603.7139" y="-91.3" font-family="Times,serif" font-size="14.00" fill="#000000">SitemapController</text>
<polyline fill="none" stroke="#000000" points="544,-84.5 663.4277,-84.5 "/>
<text text-anchor="start" x="552" y="-69.3" font-family="Times,serif" font-size="14.00" fill="#000000">index</text>
<polyline fill="none" stroke="#000000" points="544,-62.5 663.4277,-62.5 "/>
<polyline fill="none" stroke="#000000" points="544,-38.5 663.4277,-38.5 "/>
<text text-anchor="start" x="552" y="-23.3" font-family="Times,serif" font-size="14.00" fill="#000000">_layout</text>
</g>
<!-- UsersController -->
<g id="node13" class="node">
<title>UsersController</title>
<path fill="none" stroke="#000000" d="M44,-304.5C44,-304.5 135.5244,-304.5 135.5244,-304.5 141.5244,-304.5 147.5244,-310.5 147.5244,-316.5 147.5244,-316.5 147.5244,-410.5 147.5244,-410.5 147.5244,-416.5 141.5244,-422.5 135.5244,-422.5 135.5244,-422.5 44,-422.5 44,-422.5 38,-422.5 32,-416.5 32,-410.5 32,-410.5 32,-316.5 32,-316.5 32,-310.5 38,-304.5 44,-304.5"/>
<text text-anchor="middle" x="89.7622" y="-407.3" font-family="Times,serif" font-size="14.00" fill="#000000">UsersController</text>
<polyline fill="none" stroke="#000000" points="32,-400.5 147.5244,-400.5 "/>
<text text-anchor="start" x="40" y="-385.3" font-family="Times,serif" font-size="14.00" fill="#000000">change_password</text>
<text text-anchor="start" x="40" y="-371.3" font-family="Times,serif" font-size="14.00" fill="#000000">index</text>
<text text-anchor="start" x="40" y="-357.3" font-family="Times,serif" font-size="14.00" fill="#000000">update_user</text>
<polyline fill="none" stroke="#000000" points="32,-350.5 147.5244,-350.5 "/>
<polyline fill="none" stroke="#000000" points="32,-326.5 147.5244,-326.5 "/>
<text text-anchor="start" x="40" y="-311.3" font-family="Times,serif" font-size="14.00" fill="#000000">_layout</text>
</g>
</g>
</svg>
