<?xml version="1.0" encoding="UTF-8" standalone="no"?>
<!DOCTYPE svg PUBLIC "-//W3C//DTD SVG 1.1//EN"
 "http://www.w3.org/Graphics/SVG/1.1/DTD/svg11.dtd">
<!-- Generated by graphviz version 2.40.1 (20161225.0304)
 -->
<!-- Title: models_diagram Pages: 1 -->
<svg width="3257pt" height="291pt"
 viewBox="0.00 0.00 3257.41 291.00" xmlns="http://www.w3.org/2000/svg" xmlns:xlink="http://www.w3.org/1999/xlink">
<g id="graph0" class="graph" transform="scale(1 1) rotate(0) translate(4 287)">
<title>models_diagram</title>
<polygon fill="transparent" stroke="transparent" points="-4,4 -4,-287 3253.4116,-287 3253.4116,4 -4,4"/>
<!-- _diagram_info -->
<g id="node1" class="node">
<title>_diagram_info</title>
<text text-anchor="start" x="8" y="-157.1" font-family="Times,serif" font-size="13.00" fill="#000000">Models diagram</text>
<text text-anchor="start" x="8" y="-144.1" font-family="Times,serif" font-size="13.00" fill="#000000">Date: Oct 22 2017 &#45; 08:58</text>
<text text-anchor="start" x="8" y="-131.1" font-family="Times,serif" font-size="13.00" fill="#000000">Generated by RailRoady 1.5.3</text>
<text text-anchor="start" x="8" y="-118.1" font-family="Times,serif" font-size="13.00" fill="#000000">http://railroady.prestonlee.com</text>
</g>
<!-- Address -->
<g id="node2" class="node">
<title>Address</title>
<path fill="none" stroke="#000000" d="M205.2598,-56.5C205.2598,-56.5 318.1807,-56.5 318.1807,-56.5 324.1807,-56.5 330.1807,-62.5 330.1807,-68.5 330.1807,-68.5 330.1807,-214.5 330.1807,-214.5 330.1807,-220.5 324.1807,-226.5 318.1807,-226.5 318.1807,-226.5 205.2598,-226.5 205.2598,-226.5 199.2598,-226.5 193.2598,-220.5 193.2598,-214.5 193.2598,-214.5 193.2598,-68.5 193.2598,-68.5 193.2598,-62.5 199.2598,-56.5 205.2598,-56.5"/>
<text text-anchor="middle" x="261.7202" y="-211.3" font-family="Times,serif" font-size="14.00" fill="#000000">Address</text>
<polyline fill="none" stroke="#000000" points="193.2598,-204.5 330.1807,-204.5 "/>
<text text-anchor="start" x="201.2598" y="-189.3" font-family="Times,serif" font-size="14.00" fill="#000000">zip :String</text>
<text text-anchor="start" x="201.2598" y="-175.3" font-family="Times,serif" font-size="14.00" fill="#000000">address_street :String</text>
<text text-anchor="start" x="201.2598" y="-161.3" font-family="Times,serif" font-size="14.00" fill="#000000">city :String</text>
<text text-anchor="start" x="201.2598" y="-147.3" font-family="Times,serif" font-size="14.00" fill="#000000">created_at :Time</text>
<text text-anchor="start" x="201.2598" y="-133.3" font-family="Times,serif" font-size="14.00" fill="#000000">lat :Float</text>
<text text-anchor="start" x="201.2598" y="-119.3" font-family="Times,serif" font-size="14.00" fill="#000000">lng :Float</text>
<text text-anchor="start" x="201.2598" y="-105.3" font-family="Times,serif" font-size="14.00" fill="#000000">phone :String</text>
<text text-anchor="start" x="201.2598" y="-91.3" font-family="Times,serif" font-size="14.00" fill="#000000">state :String</text>
<text text-anchor="start" x="201.2598" y="-77.3" font-family="Times,serif" font-size="14.00" fill="#000000">updated_at :Time</text>
<text text-anchor="start" x="201.2598" y="-63.3" font-family="Times,serif" font-size="14.00" fill="#000000">_id :BSON::ObjectId</text>
</g>
<!-- Article -->
<g id="node3" class="node">
<title>Article</title>
<path fill="none" stroke="#000000" d="M360.0288,-70.5C360.0288,-70.5 471.4116,-70.5 471.4116,-70.5 477.4116,-70.5 483.4116,-76.5 483.4116,-82.5 483.4116,-82.5 483.4116,-200.5 483.4116,-200.5 483.4116,-206.5 477.4116,-212.5 471.4116,-212.5 471.4116,-212.5 360.0288,-212.5 360.0288,-212.5 354.0288,-212.5 348.0288,-206.5 348.0288,-200.5 348.0288,-200.5 348.0288,-82.5 348.0288,-82.5 348.0288,-76.5 354.0288,-70.5 360.0288,-70.5"/>
<text text-anchor="middle" x="415.7202" y="-197.3" font-family="Times,serif" font-size="14.00" fill="#000000">Article</text>
<polyline fill="none" stroke="#000000" points="348.0288,-190.5 483.4116,-190.5 "/>
<text text-anchor="start" x="356.0288" y="-175.3" font-family="Times,serif" font-size="14.00" fill="#000000">user_id :Object</text>
<text text-anchor="start" x="356.0288" y="-161.3" font-family="Times,serif" font-size="14.00" fill="#000000">body :String</text>
<text text-anchor="start" x="356.0288" y="-147.3" font-family="Times,serif" font-size="14.00" fill="#000000">created_at :Time</text>
<text text-anchor="start" x="356.0288" y="-133.3" font-family="Times,serif" font-size="14.00" fill="#000000">keywords :String</text>
<text text-anchor="start" x="356.0288" y="-119.3" font-family="Times,serif" font-size="14.00" fill="#000000">text :String</text>
<text text-anchor="start" x="356.0288" y="-105.3" font-family="Times,serif" font-size="14.00" fill="#000000">title :String</text>
<text text-anchor="start" x="356.0288" y="-91.3" font-family="Times,serif" font-size="14.00" fill="#000000">updated_at :Time</text>
<text text-anchor="start" x="356.0288" y="-77.3" font-family="Times,serif" font-size="14.00" fill="#000000">_id :BSON::ObjectId</text>
</g>
<!-- Ckeditor::Asset -->
<g id="node4" class="node">
<title>Ckeditor::Asset</title>
<path fill="none" stroke="#000000" d="M513.5977,-77.5C513.5977,-77.5 649.8428,-77.5 649.8428,-77.5 655.8428,-77.5 661.8428,-83.5 661.8428,-89.5 661.8428,-89.5 661.8428,-193.5 661.8428,-193.5 661.8428,-199.5 655.8428,-205.5 649.8428,-205.5 649.8428,-205.5 513.5977,-205.5 513.5977,-205.5 507.5977,-205.5 501.5977,-199.5 501.5977,-193.5 501.5977,-193.5 501.5977,-89.5 501.5977,-89.5 501.5977,-83.5 507.5977,-77.5 513.5977,-77.5"/>
<text text-anchor="middle" x="581.7202" y="-190.3" font-family="Times,serif" font-size="14.00" fill="#000000">Ckeditor::Asset</text>
<polyline fill="none" stroke="#000000" points="501.5977,-183.5 661.8428,-183.5 "/>
<text text-anchor="start" x="509.5977" y="-168.3" font-family="Times,serif" font-size="14.00" fill="#000000">data_file_size :Integer</text>
<text text-anchor="start" x="509.5977" y="-154.3" font-family="Times,serif" font-size="14.00" fill="#000000">created_at :Time</text>
<text text-anchor="start" x="509.5977" y="-140.3" font-family="Times,serif" font-size="14.00" fill="#000000">data_content_type :String</text>
<text text-anchor="start" x="509.5977" y="-126.3" font-family="Times,serif" font-size="14.00" fill="#000000">_id :BSON::ObjectId</text>
<text text-anchor="start" x="509.5977" y="-112.3" font-family="Times,serif" font-size="14.00" fill="#000000">height :Integer</text>
<text text-anchor="start" x="509.5977" y="-98.3" font-family="Times,serif" font-size="14.00" fill="#000000">updated_at :Time</text>
<text text-anchor="start" x="509.5977" y="-84.3" font-family="Times,serif" font-size="14.00" fill="#000000">width :Integer</text>
</g>
<!-- Ckeditor::AttachmentFile -->
<g id="node5" class="node">
<title>Ckeditor::AttachmentFile</title>
<path fill="none" stroke="#000000" d="M691.4126,-49.5C691.4126,-49.5 838.0278,-49.5 838.0278,-49.5 844.0278,-49.5 850.0278,-55.5 850.0278,-61.5 850.0278,-61.5 850.0278,-221.5 850.0278,-221.5 850.0278,-227.5 844.0278,-233.5 838.0278,-233.5 838.0278,-233.5 691.4126,-233.5 691.4126,-233.5 685.4126,-233.5 679.4126,-227.5 679.4126,-221.5 679.4126,-221.5 679.4126,-61.5 679.4126,-61.5 679.4126,-55.5 685.4126,-49.5 691.4126,-49.5"/>
<text text-anchor="middle" x="764.7202" y="-218.3" font-family="Times,serif" font-size="14.00" fill="#000000">Ckeditor::AttachmentFile</text>
<polyline fill="none" stroke="#000000" points="679.4126,-211.5 850.0278,-211.5 "/>
<text text-anchor="start" x="687.4126" y="-196.3" font-family="Times,serif" font-size="14.00" fill="#000000">width :Integer</text>
<text text-anchor="start" x="687.4126" y="-182.3" font-family="Times,serif" font-size="14.00" fill="#000000">_type :String</text>
<text text-anchor="start" x="687.4126" y="-168.3" font-family="Times,serif" font-size="14.00" fill="#000000">created_at :Time</text>
<text text-anchor="start" x="687.4126" y="-154.3" font-family="Times,serif" font-size="14.00" fill="#000000">data_content_type :String</text>
<text text-anchor="start" x="687.4126" y="-140.3" font-family="Times,serif" font-size="14.00" fill="#000000">data_file_name :String</text>
<text text-anchor="start" x="687.4126" y="-126.3" font-family="Times,serif" font-size="14.00" fill="#000000">data_file_size :Integer</text>
<text text-anchor="start" x="687.4126" y="-112.3" font-family="Times,serif" font-size="14.00" fill="#000000">data_fingerprint :String</text>
<text text-anchor="start" x="687.4126" y="-98.3" font-family="Times,serif" font-size="14.00" fill="#000000">data_updated_at :DateTime</text>
<text text-anchor="start" x="687.4126" y="-84.3" font-family="Times,serif" font-size="14.00" fill="#000000">height :Integer</text>
<text text-anchor="start" x="687.4126" y="-70.3" font-family="Times,serif" font-size="14.00" fill="#000000">updated_at :Time</text>
<text text-anchor="start" x="687.4126" y="-56.3" font-family="Times,serif" font-size="14.00" fill="#000000">_id :BSON::ObjectId</text>
</g>
<!-- Ckeditor::Picture -->
<g id="node6" class="node">
<title>Ckeditor::Picture</title>
<path fill="none" stroke="#000000" d="M880.4126,-49.5C880.4126,-49.5 1027.0278,-49.5 1027.0278,-49.5 1033.0278,-49.5 1039.0278,-55.5 1039.0278,-61.5 1039.0278,-61.5 1039.0278,-221.5 1039.0278,-221.5 1039.0278,-227.5 1033.0278,-233.5 1027.0278,-233.5 1027.0278,-233.5 880.4126,-233.5 880.4126,-233.5 874.4126,-233.5 868.4126,-227.5 868.4126,-221.5 868.4126,-221.5 868.4126,-61.5 868.4126,-61.5 868.4126,-55.5 874.4126,-49.5 880.4126,-49.5"/>
<text text-anchor="middle" x="953.7202" y="-218.3" font-family="Times,serif" font-size="14.00" fill="#000000">Ckeditor::Picture</text>
<polyline fill="none" stroke="#000000" points="868.4126,-211.5 1039.0278,-211.5 "/>
<text text-anchor="start" x="876.4126" y="-196.3" font-family="Times,serif" font-size="14.00" fill="#000000">width :Integer</text>
<text text-anchor="start" x="876.4126" y="-182.3" font-family="Times,serif" font-size="14.00" fill="#000000">_type :String</text>
<text text-anchor="start" x="876.4126" y="-168.3" font-family="Times,serif" font-size="14.00" fill="#000000">created_at :Time</text>
<text text-anchor="start" x="876.4126" y="-154.3" font-family="Times,serif" font-size="14.00" fill="#000000">data_content_type :String</text>
<text text-anchor="start" x="876.4126" y="-140.3" font-family="Times,serif" font-size="14.00" fill="#000000">data_file_name :String</text>
<text text-anchor="start" x="876.4126" y="-126.3" font-family="Times,serif" font-size="14.00" fill="#000000">data_file_size :Integer</text>
<text text-anchor="start" x="876.4126" y="-112.3" font-family="Times,serif" font-size="14.00" fill="#000000">data_fingerprint :String</text>
<text text-anchor="start" x="876.4126" y="-98.3" font-family="Times,serif" font-size="14.00" fill="#000000">data_updated_at :DateTime</text>
<text text-anchor="start" x="876.4126" y="-84.3" font-family="Times,serif" font-size="14.00" fill="#000000">height :Integer</text>
<text text-anchor="start" x="876.4126" y="-70.3" font-family="Times,serif" font-size="14.00" fill="#000000">updated_at :Time</text>
<text text-anchor="start" x="876.4126" y="-56.3" font-family="Times,serif" font-size="14.00" fill="#000000">_id :BSON::ObjectId</text>
</g>
<!-- Comment -->
<g id="node7" class="node">
<title>Comment</title>
<path fill="none" stroke="#000000" d="M1069.0288,-84.5C1069.0288,-84.5 1180.4116,-84.5 1180.4116,-84.5 1186.4116,-84.5 1192.4116,-90.5 1192.4116,-96.5 1192.4116,-96.5 1192.4116,-186.5 1192.4116,-186.5 1192.4116,-192.5 1186.4116,-198.5 1180.4116,-198.5 1180.4116,-198.5 1069.0288,-198.5 1069.0288,-198.5 1063.0288,-198.5 1057.0288,-192.5 1057.0288,-186.5 1057.0288,-186.5 1057.0288,-96.5 1057.0288,-96.5 1057.0288,-90.5 1063.0288,-84.5 1069.0288,-84.5"/>
<text text-anchor="middle" x="1124.7202" y="-183.3" font-family="Times,serif" font-size="14.00" fill="#000000">Comment</text>
<polyline fill="none" stroke="#000000" points="1057.0288,-176.5 1192.4116,-176.5 "/>
<text text-anchor="start" x="1065.0288" y="-161.3" font-family="Times,serif" font-size="14.00" fill="#000000">_id :BSON::ObjectId</text>
<text text-anchor="start" x="1065.0288" y="-147.3" font-family="Times,serif" font-size="14.00" fill="#000000">article_id :Object</text>
<text text-anchor="start" x="1065.0288" y="-133.3" font-family="Times,serif" font-size="14.00" fill="#000000">body :String</text>
<text text-anchor="start" x="1065.0288" y="-119.3" font-family="Times,serif" font-size="14.00" fill="#000000">created_at :Time</text>
<text text-anchor="start" x="1065.0288" y="-105.3" font-family="Times,serif" font-size="14.00" fill="#000000">updated_at :Time</text>
<text text-anchor="start" x="1065.0288" y="-91.3" font-family="Times,serif" font-size="14.00" fill="#000000">user_id :Object</text>
</g>
<!-- Identity -->
<g id="node8" class="node">
<title>Identity</title>
<path fill="none" stroke="#000000" d="M1222.2495,-98.5C1222.2495,-98.5 1349.1909,-98.5 1349.1909,-98.5 1355.1909,-98.5 1361.1909,-104.5 1361.1909,-110.5 1361.1909,-110.5 1361.1909,-172.5 1361.1909,-172.5 1361.1909,-178.5 1355.1909,-184.5 1349.1909,-184.5 1349.1909,-184.5 1222.2495,-184.5 1222.2495,-184.5 1216.2495,-184.5 1210.2495,-178.5 1210.2495,-172.5 1210.2495,-172.5 1210.2495,-110.5 1210.2495,-110.5 1210.2495,-104.5 1216.2495,-98.5 1222.2495,-98.5"/>
<text text-anchor="middle" x="1285.7202" y="-169.3" font-family="Times,serif" font-size="14.00" fill="#000000">Identity</text>
<polyline fill="none" stroke="#000000" points="1210.2495,-162.5 1361.1909,-162.5 "/>
<text text-anchor="start" x="1218.2495" y="-147.3" font-family="Times,serif" font-size="14.00" fill="#000000">_id :BSON::ObjectId</text>
<text text-anchor="start" x="1218.2495" y="-133.3" font-family="Times,serif" font-size="14.00" fill="#000000">code :String</text>
<text text-anchor="start" x="1218.2495" y="-119.3" font-family="Times,serif" font-size="14.00" fill="#000000">email :String</text>
<text text-anchor="start" x="1218.2495" y="-105.3" font-family="Times,serif" font-size="14.00" fill="#000000">password_digest :String</text>
</g>
<!-- Mindapp::Doc -->
<g id="node9" class="node">
<title>Mindapp::Doc</title>
<path fill="none" stroke="#000000" d="M1390.7114,-7.5C1390.7114,-7.5 1562.729,-7.5 1562.729,-7.5 1568.729,-7.5 1574.729,-13.5 1574.729,-19.5 1574.729,-19.5 1574.729,-263.5 1574.729,-263.5 1574.729,-269.5 1568.729,-275.5 1562.729,-275.5 1562.729,-275.5 1390.7114,-275.5 1390.7114,-275.5 1384.7114,-275.5 1378.7114,-269.5 1378.7114,-263.5 1378.7114,-263.5 1378.7114,-19.5 1378.7114,-19.5 1378.7114,-13.5 1384.7114,-7.5 1390.7114,-7.5"/>
<text text-anchor="middle" x="1476.7202" y="-260.3" font-family="Times,serif" font-size="14.00" fill="#000000">Mindapp::Doc</text>
<polyline fill="none" stroke="#000000" points="1378.7114,-253.5 1574.729,-253.5 "/>
<text text-anchor="start" x="1386.7114" y="-238.3" font-family="Times,serif" font-size="14.00" fill="#000000">xmain_id :Object</text>
<text text-anchor="start" x="1386.7114" y="-224.3" font-family="Times,serif" font-size="14.00" fill="#000000">basename :String</text>
<text text-anchor="start" x="1386.7114" y="-210.3" font-family="Times,serif" font-size="14.00" fill="#000000">cloudinary :Mongoid::Boolean</text>
<text text-anchor="start" x="1386.7114" y="-196.3" font-family="Times,serif" font-size="14.00" fill="#000000">content_type :String</text>
<text text-anchor="start" x="1386.7114" y="-182.3" font-family="Times,serif" font-size="14.00" fill="#000000">created_at :Time</text>
<text text-anchor="start" x="1386.7114" y="-168.3" font-family="Times,serif" font-size="14.00" fill="#000000">data_text :String</text>
<text text-anchor="start" x="1386.7114" y="-154.3" font-family="Times,serif" font-size="14.00" fill="#000000">filename :String</text>
<text text-anchor="start" x="1386.7114" y="-140.3" font-family="Times,serif" font-size="14.00" fill="#000000">ip :String</text>
<text text-anchor="start" x="1386.7114" y="-126.3" font-family="Times,serif" font-size="14.00" fill="#000000">ma_display :Mongoid::Boolean</text>
<text text-anchor="start" x="1386.7114" y="-112.3" font-family="Times,serif" font-size="14.00" fill="#000000">ma_secured :Mongoid::Boolean</text>
<text text-anchor="start" x="1386.7114" y="-98.3" font-family="Times,serif" font-size="14.00" fill="#000000">name :String</text>
<text text-anchor="start" x="1386.7114" y="-84.3" font-family="Times,serif" font-size="14.00" fill="#000000">runseq_id :Object</text>
<text text-anchor="start" x="1386.7114" y="-70.3" font-family="Times,serif" font-size="14.00" fill="#000000">service_id :Object</text>
<text text-anchor="start" x="1386.7114" y="-56.3" font-family="Times,serif" font-size="14.00" fill="#000000">updated_at :Time</text>
<text text-anchor="start" x="1386.7114" y="-42.3" font-family="Times,serif" font-size="14.00" fill="#000000">url :String</text>
<text text-anchor="start" x="1386.7114" y="-28.3" font-family="Times,serif" font-size="14.00" fill="#000000">user_id :Object</text>
<text text-anchor="start" x="1386.7114" y="-14.3" font-family="Times,serif" font-size="14.00" fill="#000000">_id :BSON::ObjectId</text>
</g>
<!-- Mindapp::Module -->
<g id="node10" class="node">
<title>Mindapp::Module</title>
<path fill="none" stroke="#000000" d="M1605.0288,-84.5C1605.0288,-84.5 1716.4116,-84.5 1716.4116,-84.5 1722.4116,-84.5 1728.4116,-90.5 1728.4116,-96.5 1728.4116,-96.5 1728.4116,-186.5 1728.4116,-186.5 1728.4116,-192.5 1722.4116,-198.5 1716.4116,-198.5 1716.4116,-198.5 1605.0288,-198.5 1605.0288,-198.5 1599.0288,-198.5 1593.0288,-192.5 1593.0288,-186.5 1593.0288,-186.5 1593.0288,-96.5 1593.0288,-96.5 1593.0288,-90.5 1599.0288,-84.5 1605.0288,-84.5"/>
<text text-anchor="middle" x="1660.7202" y="-183.3" font-family="Times,serif" font-size="14.00" fill="#000000">Mindapp::Module</text>
<polyline fill="none" stroke="#000000" points="1593.0288,-176.5 1728.4116,-176.5 "/>
<text text-anchor="start" x="1601.0288" y="-161.3" font-family="Times,serif" font-size="14.00" fill="#000000">_id :BSON::ObjectId</text>
<text text-anchor="start" x="1601.0288" y="-147.3" font-family="Times,serif" font-size="14.00" fill="#000000">code :String</text>
<text text-anchor="start" x="1601.0288" y="-133.3" font-family="Times,serif" font-size="14.00" fill="#000000">name :String</text>
<text text-anchor="start" x="1601.0288" y="-119.3" font-family="Times,serif" font-size="14.00" fill="#000000">role :String</text>
<text text-anchor="start" x="1601.0288" y="-105.3" font-family="Times,serif" font-size="14.00" fill="#000000">seq :Integer</text>
<text text-anchor="start" x="1601.0288" y="-91.3" font-family="Times,serif" font-size="14.00" fill="#000000">uid :String</text>
</g>
<!-- Mindapp::Notice -->
<g id="node11" class="node">
<title>Mindapp::Notice</title>
<path fill="none" stroke="#000000" d="M1758.0942,-77.5C1758.0942,-77.5 1901.3462,-77.5 1901.3462,-77.5 1907.3462,-77.5 1913.3462,-83.5 1913.3462,-89.5 1913.3462,-89.5 1913.3462,-193.5 1913.3462,-193.5 1913.3462,-199.5 1907.3462,-205.5 1901.3462,-205.5 1901.3462,-205.5 1758.0942,-205.5 1758.0942,-205.5 1752.0942,-205.5 1746.0942,-199.5 1746.0942,-193.5 1746.0942,-193.5 1746.0942,-89.5 1746.0942,-89.5 1746.0942,-83.5 1752.0942,-77.5 1758.0942,-77.5"/>
<text text-anchor="middle" x="1829.7202" y="-190.3" font-family="Times,serif" font-size="14.00" fill="#000000">Mindapp::Notice</text>
<polyline fill="none" stroke="#000000" points="1746.0942,-183.5 1913.3462,-183.5 "/>
<text text-anchor="start" x="1754.0942" y="-168.3" font-family="Times,serif" font-size="14.00" fill="#000000">message :String</text>
<text text-anchor="start" x="1754.0942" y="-154.3" font-family="Times,serif" font-size="14.00" fill="#000000">created_at :Time</text>
<text text-anchor="start" x="1754.0942" y="-140.3" font-family="Times,serif" font-size="14.00" fill="#000000">ip :String</text>
<text text-anchor="start" x="1754.0942" y="-126.3" font-family="Times,serif" font-size="14.00" fill="#000000">_id :BSON::ObjectId</text>
<text text-anchor="start" x="1754.0942" y="-112.3" font-family="Times,serif" font-size="14.00" fill="#000000">unread :Mongoid::Boolean</text>
<text text-anchor="start" x="1754.0942" y="-98.3" font-family="Times,serif" font-size="14.00" fill="#000000">updated_at :Time</text>
<text text-anchor="start" x="1754.0942" y="-84.3" font-family="Times,serif" font-size="14.00" fill="#000000">user_id :Object</text>
</g>
<!-- Mindapp::Role -->
<g id="node12" class="node">
<title>Mindapp::Role</title>
<path fill="none" stroke="#000000" d="M1943.0288,-84.5C1943.0288,-84.5 2054.4116,-84.5 2054.4116,-84.5 2060.4116,-84.5 2066.4116,-90.5 2066.4116,-96.5 2066.4116,-96.5 2066.4116,-186.5 2066.4116,-186.5 2066.4116,-192.5 2060.4116,-198.5 2054.4116,-198.5 2054.4116,-198.5 1943.0288,-198.5 1943.0288,-198.5 1937.0288,-198.5 1931.0288,-192.5 1931.0288,-186.5 1931.0288,-186.5 1931.0288,-96.5 1931.0288,-96.5 1931.0288,-90.5 1937.0288,-84.5 1943.0288,-84.5"/>
<text text-anchor="middle" x="1998.7202" y="-183.3" font-family="Times,serif" font-size="14.00" fill="#000000">Mindapp::Role</text>
<polyline fill="none" stroke="#000000" points="1931.0288,-176.5 2066.4116,-176.5 "/>
<text text-anchor="start" x="1939.0288" y="-161.3" font-family="Times,serif" font-size="14.00" fill="#000000">_id :BSON::ObjectId</text>
<text text-anchor="start" x="1939.0288" y="-147.3" font-family="Times,serif" font-size="14.00" fill="#000000">code :String</text>
<text text-anchor="start" x="1939.0288" y="-133.3" font-family="Times,serif" font-size="14.00" fill="#000000">created_at :Time</text>
<text text-anchor="start" x="1939.0288" y="-119.3" font-family="Times,serif" font-size="14.00" fill="#000000">name :String</text>
<text text-anchor="start" x="1939.0288" y="-105.3" font-family="Times,serif" font-size="14.00" fill="#000000">updated_at :Time</text>
<text text-anchor="start" x="1939.0288" y="-91.3" font-family="Times,serif" font-size="14.00" fill="#000000">user_id :Object</text>
</g>
<!-- Mindapp::Runseq -->
<g id="node13" class="node">
<title>Mindapp::Runseq</title>
<path fill="none" stroke="#000000" d="M2096.0322,-.5C2096.0322,-.5 2221.4082,-.5 2221.4082,-.5 2227.4082,-.5 2233.4082,-6.5 2233.4082,-12.5 2233.4082,-12.5 2233.4082,-270.5 2233.4082,-270.5 2233.4082,-276.5 2227.4082,-282.5 2221.4082,-282.5 2221.4082,-282.5 2096.0322,-282.5 2096.0322,-282.5 2090.0322,-282.5 2084.0322,-276.5 2084.0322,-270.5 2084.0322,-270.5 2084.0322,-12.5 2084.0322,-12.5 2084.0322,-6.5 2090.0322,-.5 2096.0322,-.5"/>
<text text-anchor="middle" x="2158.7202" y="-267.3" font-family="Times,serif" font-size="14.00" fill="#000000">Mindapp::Runseq</text>
<polyline fill="none" stroke="#000000" points="2084.0322,-260.5 2233.4082,-260.5 "/>
<text text-anchor="start" x="2092.0322" y="-245.3" font-family="Times,serif" font-size="14.00" fill="#000000">xml :String</text>
<text text-anchor="start" x="2092.0322" y="-231.3" font-family="Times,serif" font-size="14.00" fill="#000000">action :String</text>
<text text-anchor="start" x="2092.0322" y="-217.3" font-family="Times,serif" font-size="14.00" fill="#000000">code :String</text>
<text text-anchor="start" x="2092.0322" y="-203.3" font-family="Times,serif" font-size="14.00" fill="#000000">created_at :Time</text>
<text text-anchor="start" x="2092.0322" y="-189.3" font-family="Times,serif" font-size="14.00" fill="#000000">end :Mongoid::Boolean</text>
<text text-anchor="start" x="2092.0322" y="-175.3" font-family="Times,serif" font-size="14.00" fill="#000000">form_step :Integer</text>
<text text-anchor="start" x="2092.0322" y="-161.3" font-family="Times,serif" font-size="14.00" fill="#000000">ip :String</text>
<text text-anchor="start" x="2092.0322" y="-147.3" font-family="Times,serif" font-size="14.00" fill="#000000">name :String</text>
<text text-anchor="start" x="2092.0322" y="-133.3" font-family="Times,serif" font-size="14.00" fill="#000000">role :String</text>
<text text-anchor="start" x="2092.0322" y="-119.3" font-family="Times,serif" font-size="14.00" fill="#000000">rstep :Integer</text>
<text text-anchor="start" x="2092.0322" y="-105.3" font-family="Times,serif" font-size="14.00" fill="#000000">rule :String</text>
<text text-anchor="start" x="2092.0322" y="-91.3" font-family="Times,serif" font-size="14.00" fill="#000000">start :DateTime</text>
<text text-anchor="start" x="2092.0322" y="-77.3" font-family="Times,serif" font-size="14.00" fill="#000000">status :String</text>
<text text-anchor="start" x="2092.0322" y="-63.3" font-family="Times,serif" font-size="14.00" fill="#000000">stop :DateTime</text>
<text text-anchor="start" x="2092.0322" y="-49.3" font-family="Times,serif" font-size="14.00" fill="#000000">updated_at :Time</text>
<text text-anchor="start" x="2092.0322" y="-35.3" font-family="Times,serif" font-size="14.00" fill="#000000">user_id :Object</text>
<text text-anchor="start" x="2092.0322" y="-21.3" font-family="Times,serif" font-size="14.00" fill="#000000">xmain_id :Object</text>
<text text-anchor="start" x="2092.0322" y="-7.3" font-family="Times,serif" font-size="14.00" fill="#000000">_id :BSON::ObjectId</text>
</g>
<!-- Mindapp::Service -->
<g id="node14" class="node">
<title>Mindapp::Service</title>
<path fill="none" stroke="#000000" d="M2263.7114,-35.5C2263.7114,-35.5 2435.729,-35.5 2435.729,-35.5 2441.729,-35.5 2447.729,-41.5 2447.729,-47.5 2447.729,-47.5 2447.729,-235.5 2447.729,-235.5 2447.729,-241.5 2441.729,-247.5 2435.729,-247.5 2435.729,-247.5 2263.7114,-247.5 2263.7114,-247.5 2257.7114,-247.5 2251.7114,-241.5 2251.7114,-235.5 2251.7114,-235.5 2251.7114,-47.5 2251.7114,-47.5 2251.7114,-41.5 2257.7114,-35.5 2263.7114,-35.5"/>
<text text-anchor="middle" x="2349.7202" y="-232.3" font-family="Times,serif" font-size="14.00" fill="#000000">Mindapp::Service</text>
<polyline fill="none" stroke="#000000" points="2251.7114,-225.5 2447.729,-225.5 "/>
<text text-anchor="start" x="2259.7114" y="-210.3" font-family="Times,serif" font-size="14.00" fill="#000000">xml :String</text>
<text text-anchor="start" x="2259.7114" y="-196.3" font-family="Times,serif" font-size="14.00" fill="#000000">code :String</text>
<text text-anchor="start" x="2259.7114" y="-182.3" font-family="Times,serif" font-size="14.00" fill="#000000">confirm :Mongoid::Boolean</text>
<text text-anchor="start" x="2259.7114" y="-168.3" font-family="Times,serif" font-size="14.00" fill="#000000">list :Mongoid::Boolean</text>
<text text-anchor="start" x="2259.7114" y="-154.3" font-family="Times,serif" font-size="14.00" fill="#000000">ma_secured :Mongoid::Boolean</text>
<text text-anchor="start" x="2259.7114" y="-140.3" font-family="Times,serif" font-size="14.00" fill="#000000">module_code :String</text>
<text text-anchor="start" x="2259.7114" y="-126.3" font-family="Times,serif" font-size="14.00" fill="#000000">module_id :Object</text>
<text text-anchor="start" x="2259.7114" y="-112.3" font-family="Times,serif" font-size="14.00" fill="#000000">name :String</text>
<text text-anchor="start" x="2259.7114" y="-98.3" font-family="Times,serif" font-size="14.00" fill="#000000">role :String</text>
<text text-anchor="start" x="2259.7114" y="-84.3" font-family="Times,serif" font-size="14.00" fill="#000000">rule :String</text>
<text text-anchor="start" x="2259.7114" y="-70.3" font-family="Times,serif" font-size="14.00" fill="#000000">seq :Integer</text>
<text text-anchor="start" x="2259.7114" y="-56.3" font-family="Times,serif" font-size="14.00" fill="#000000">uid :String</text>
<text text-anchor="start" x="2259.7114" y="-42.3" font-family="Times,serif" font-size="14.00" fill="#000000">_id :BSON::ObjectId</text>
</g>
<!-- Mindapp::Xmain -->
<g id="node15" class="node">
<title>Mindapp::Xmain</title>
<path fill="none" stroke="#000000" d="M2477.9287,-35.5C2477.9287,-35.5 2595.5117,-35.5 2595.5117,-35.5 2601.5117,-35.5 2607.5117,-41.5 2607.5117,-47.5 2607.5117,-47.5 2607.5117,-235.5 2607.5117,-235.5 2607.5117,-241.5 2601.5117,-247.5 2595.5117,-247.5 2595.5117,-247.5 2477.9287,-247.5 2477.9287,-247.5 2471.9287,-247.5 2465.9287,-241.5 2465.9287,-235.5 2465.9287,-235.5 2465.9287,-47.5 2465.9287,-47.5 2465.9287,-41.5 2471.9287,-35.5 2477.9287,-35.5"/>
<text text-anchor="middle" x="2536.7202" y="-232.3" font-family="Times,serif" font-size="14.00" fill="#000000">Mindapp::Xmain</text>
<polyline fill="none" stroke="#000000" points="2465.9287,-225.5 2607.5117,-225.5 "/>
<text text-anchor="start" x="2473.9287" y="-210.3" font-family="Times,serif" font-size="14.00" fill="#000000">xvars :Hash</text>
<text text-anchor="start" x="2473.9287" y="-196.3" font-family="Times,serif" font-size="14.00" fill="#000000">created_at :Time</text>
<text text-anchor="start" x="2473.9287" y="-182.3" font-family="Times,serif" font-size="14.00" fill="#000000">current_runseq :String</text>
<text text-anchor="start" x="2473.9287" y="-168.3" font-family="Times,serif" font-size="14.00" fill="#000000">ip :String</text>
<text text-anchor="start" x="2473.9287" y="-154.3" font-family="Times,serif" font-size="14.00" fill="#000000">name :String</text>
<text text-anchor="start" x="2473.9287" y="-140.3" font-family="Times,serif" font-size="14.00" fill="#000000">service_id :Object</text>
<text text-anchor="start" x="2473.9287" y="-126.3" font-family="Times,serif" font-size="14.00" fill="#000000">start :DateTime</text>
<text text-anchor="start" x="2473.9287" y="-112.3" font-family="Times,serif" font-size="14.00" fill="#000000">status :String</text>
<text text-anchor="start" x="2473.9287" y="-98.3" font-family="Times,serif" font-size="14.00" fill="#000000">stop :DateTime</text>
<text text-anchor="start" x="2473.9287" y="-84.3" font-family="Times,serif" font-size="14.00" fill="#000000">updated_at :Time</text>
<text text-anchor="start" x="2473.9287" y="-70.3" font-family="Times,serif" font-size="14.00" fill="#000000">user_id :Object</text>
<text text-anchor="start" x="2473.9287" y="-56.3" font-family="Times,serif" font-size="14.00" fill="#000000">xid :String</text>
<text text-anchor="start" x="2473.9287" y="-42.3" font-family="Times,serif" font-size="14.00" fill="#000000">_id :BSON::ObjectId</text>
</g>
<!-- Param -->
<g id="node16" class="node">
<title>Param</title>
<path fill="none" stroke="#000000" d="M2637.6494,-77.5C2637.6494,-77.5 2777.791,-77.5 2777.791,-77.5 2783.791,-77.5 2789.791,-83.5 2789.791,-89.5 2789.791,-89.5 2789.791,-193.5 2789.791,-193.5 2789.791,-199.5 2783.791,-205.5 2777.791,-205.5 2777.791,-205.5 2637.6494,-205.5 2637.6494,-205.5 2631.6494,-205.5 2625.6494,-199.5 2625.6494,-193.5 2625.6494,-193.5 2625.6494,-89.5 2625.6494,-89.5 2625.6494,-83.5 2631.6494,-77.5 2637.6494,-77.5"/>
<text text-anchor="middle" x="2707.7202" y="-190.3" font-family="Times,serif" font-size="14.00" fill="#000000">Param</text>
<polyline fill="none" stroke="#000000" points="2625.6494,-183.5 2789.791,-183.5 "/>
<text text-anchor="start" x="2633.6494" y="-168.3" font-family="Times,serif" font-size="14.00" fill="#000000">description :String</text>
<text text-anchor="start" x="2633.6494" y="-154.3" font-family="Times,serif" font-size="14.00" fill="#000000">code :String</text>
<text text-anchor="start" x="2633.6494" y="-140.3" font-family="Times,serif" font-size="14.00" fill="#000000">created_at :Time</text>
<text text-anchor="start" x="2633.6494" y="-126.3" font-family="Times,serif" font-size="14.00" fill="#000000">_id :BSON::ObjectId</text>
<text text-anchor="start" x="2633.6494" y="-112.3" font-family="Times,serif" font-size="14.00" fill="#000000">pid :String</text>
<text text-anchor="start" x="2633.6494" y="-98.3" font-family="Times,serif" font-size="14.00" fill="#000000">updated_at :Time</text>
<text text-anchor="start" x="2633.6494" y="-84.3" font-family="Times,serif" font-size="14.00" fill="#000000">yearly :Mongoid::Boolean</text>
</g>
<!-- Person -->
<g id="node17" class="node">
<title>Person</title>
<path fill="none" stroke="#000000" d="M2820.0288,-56.5C2820.0288,-56.5 2931.4116,-56.5 2931.4116,-56.5 2937.4116,-56.5 2943.4116,-62.5 2943.4116,-68.5 2943.4116,-68.5 2943.4116,-214.5 2943.4116,-214.5 2943.4116,-220.5 2937.4116,-226.5 2931.4116,-226.5 2931.4116,-226.5 2820.0288,-226.5 2820.0288,-226.5 2814.0288,-226.5 2808.0288,-220.5 2808.0288,-214.5 2808.0288,-214.5 2808.0288,-68.5 2808.0288,-68.5 2808.0288,-62.5 2814.0288,-56.5 2820.0288,-56.5"/>
<text text-anchor="middle" x="2875.7202" y="-211.3" font-family="Times,serif" font-size="14.00" fill="#000000">Person</text>
<polyline fill="none" stroke="#000000" points="2808.0288,-204.5 2943.4116,-204.5 "/>
<text text-anchor="start" x="2816.0288" y="-189.3" font-family="Times,serif" font-size="14.00" fill="#000000">updated_at :Time</text>
<text text-anchor="start" x="2816.0288" y="-175.3" font-family="Times,serif" font-size="14.00" fill="#000000">address_id :Object</text>
<text text-anchor="start" x="2816.0288" y="-161.3" font-family="Times,serif" font-size="14.00" fill="#000000">created_at :Time</text>
<text text-anchor="start" x="2816.0288" y="-147.3" font-family="Times,serif" font-size="14.00" fill="#000000">dob :Date</text>
<text text-anchor="start" x="2816.0288" y="-133.3" font-family="Times,serif" font-size="14.00" fill="#000000">fname :String</text>
<text text-anchor="start" x="2816.0288" y="-119.3" font-family="Times,serif" font-size="14.00" fill="#000000">lname :String</text>
<text text-anchor="start" x="2816.0288" y="-105.3" font-family="Times,serif" font-size="14.00" fill="#000000">phone :String</text>
<text text-anchor="start" x="2816.0288" y="-91.3" font-family="Times,serif" font-size="14.00" fill="#000000">photo :String</text>
<text text-anchor="start" x="2816.0288" y="-77.3" font-family="Times,serif" font-size="14.00" fill="#000000">sex :Integer</text>
<text text-anchor="start" x="2816.0288" y="-63.3" font-family="Times,serif" font-size="14.00" fill="#000000">_id :BSON::ObjectId</text>
</g>
<!-- Picture -->
<g id="node18" class="node">
<title>Picture</title>
<path fill="none" stroke="#000000" d="M2973.0288,-84.5C2973.0288,-84.5 3084.4116,-84.5 3084.4116,-84.5 3090.4116,-84.5 3096.4116,-90.5 3096.4116,-96.5 3096.4116,-96.5 3096.4116,-186.5 3096.4116,-186.5 3096.4116,-192.5 3090.4116,-198.5 3084.4116,-198.5 3084.4116,-198.5 2973.0288,-198.5 2973.0288,-198.5 2967.0288,-198.5 2961.0288,-192.5 2961.0288,-186.5 2961.0288,-186.5 2961.0288,-96.5 2961.0288,-96.5 2961.0288,-90.5 2967.0288,-84.5 2973.0288,-84.5"/>
<text text-anchor="middle" x="3028.7202" y="-183.3" font-family="Times,serif" font-size="14.00" fill="#000000">Picture</text>
<polyline fill="none" stroke="#000000" points="2961.0288,-176.5 3096.4116,-176.5 "/>
<text text-anchor="start" x="2969.0288" y="-161.3" font-family="Times,serif" font-size="14.00" fill="#000000">_id :BSON::ObjectId</text>
<text text-anchor="start" x="2969.0288" y="-147.3" font-family="Times,serif" font-size="14.00" fill="#000000">created_at :Time</text>
<text text-anchor="start" x="2969.0288" y="-133.3" font-family="Times,serif" font-size="14.00" fill="#000000">description :String</text>
<text text-anchor="start" x="2969.0288" y="-119.3" font-family="Times,serif" font-size="14.00" fill="#000000">picture :String</text>
<text text-anchor="start" x="2969.0288" y="-105.3" font-family="Times,serif" font-size="14.00" fill="#000000">updated_at :Time</text>
<text text-anchor="start" x="2969.0288" y="-91.3" font-family="Times,serif" font-size="14.00" fill="#000000">user_id :Object</text>
</g>
<!-- User -->
<g id="node19" class="node">
<title>User</title>
<path fill="none" stroke="#000000" d="M3126.0288,-63.5C3126.0288,-63.5 3237.4116,-63.5 3237.4116,-63.5 3243.4116,-63.5 3249.4116,-69.5 3249.4116,-75.5 3249.4116,-75.5 3249.4116,-207.5 3249.4116,-207.5 3249.4116,-213.5 3243.4116,-219.5 3237.4116,-219.5 3237.4116,-219.5 3126.0288,-219.5 3126.0288,-219.5 3120.0288,-219.5 3114.0288,-213.5 3114.0288,-207.5 3114.0288,-207.5 3114.0288,-75.5 3114.0288,-75.5 3114.0288,-69.5 3120.0288,-63.5 3126.0288,-63.5"/>
<text text-anchor="middle" x="3181.7202" y="-204.3" font-family="Times,serif" font-size="14.00" fill="#000000">User</text>
<polyline fill="none" stroke="#000000" points="3114.0288,-197.5 3249.4116,-197.5 "/>
<text text-anchor="start" x="3122.0288" y="-182.3" font-family="Times,serif" font-size="14.00" fill="#000000">user :String</text>
<text text-anchor="start" x="3122.0288" y="-168.3" font-family="Times,serif" font-size="14.00" fill="#000000">code :String</text>
<text text-anchor="start" x="3122.0288" y="-154.3" font-family="Times,serif" font-size="14.00" fill="#000000">email :String</text>
<text text-anchor="start" x="3122.0288" y="-140.3" font-family="Times,serif" font-size="14.00" fill="#000000">identity_id :Object</text>
<text text-anchor="start" x="3122.0288" y="-126.3" font-family="Times,serif" font-size="14.00" fill="#000000">identity_type :String</text>
<text text-anchor="start" x="3122.0288" y="-112.3" font-family="Times,serif" font-size="14.00" fill="#000000">provider :String</text>
<text text-anchor="start" x="3122.0288" y="-98.3" font-family="Times,serif" font-size="14.00" fill="#000000">role :String</text>
<text text-anchor="start" x="3122.0288" y="-84.3" font-family="Times,serif" font-size="14.00" fill="#000000">uid :String</text>
<text text-anchor="start" x="3122.0288" y="-70.3" font-family="Times,serif" font-size="14.00" fill="#000000">_id :BSON::ObjectId</text>
</g>
</g>
</svg>
